<svg width="111" height="95" viewBox="0 0 111 95" fill="none" xmlns="http://www.w3.org/2000/svg">
<path d="M20.5 95C19.0833 95 17.7917 94.5633 16.625 93.69C15.4583 92.8133 14.6667 91.6667 14.25 90.25L0.249995 39.75C-0.166672 38.5833 0.0199948 37.5 0.809995 36.5C1.60333 35.5 2.66666 35 3.99999 35H29.25L51.25 2.25C51.6667 1.58333 52.25 1.04167 53 0.625C53.75 0.208333 54.5417 0 55.375 0C56.2083 0 57 0.208333 57.75 0.625C58.5 1.04167 59.0833 1.58333 59.5 2.25L81.5 35H107C108.333 35 109.397 35.5 110.19 36.5C110.98 37.5 111.167 38.5833 110.75 39.75L96.75 90.25C96.3333 91.6667 95.5417 92.8133 94.375 93.69C93.2083 94.5633 91.9167 95 90.5 95H20.5ZM41.375 35H69.5L55.375 14L41.375 35ZM55.5 75C58.25 75 60.605 74.0217 62.565 72.065C64.5217 70.105 65.5 67.75 65.5 65C65.5 62.25 64.5217 59.895 62.565 57.935C60.605 55.9783 58.25 55 55.5 55C52.75 55 50.3967 55.9783 48.44 57.935C46.48 59.895 45.5 62.25 45.5 65C45.5 67.75 46.48 70.105 48.44 72.065C50.3967 74.0217 52.75 75 55.5 75ZM23 85H88L99 45H12L23 85Z" fill="#666666"/>
</svg>
